<svg xmlns="http://www.w3.org/2000/svg" xmlns:xlink="http://www.w3.org/1999/xlink" width="400" height="300" viewBox="0 0 400 300">
  <defs>
    <clipPath id="clip-path">
      <rect id="Rectangle_1" data-name="Rectangle 1" width="400" height="300" transform="translate(154 223)" fill="#fff" stroke="#707070" stroke-width="1"/>
    </clipPath>
  </defs>
  <g id="imagem-principal" transform="translate(-154 -223)" clip-path="url(#clip-path)">
    <g id="icone-2" transform="translate(188.439 207.439)">
      <rect id="Rectangle_2" data-name="Rectangle 2" width="10.348" height="170.784" transform="translate(18.111 33.617)" fill="#ccd1d9"/>
      <g id="Group_17" data-name="Group 17">
        <rect id="Rectangle_3" data-name="Rectangle 3" width="284.558" height="170.687" transform="translate(28.454 33.668)" fill="#e5ecec"/>
        <path id="Path_4" data-name="Path 4" d="M165.561,230.224a7.761,7.761,0,1,1-7.761,7.761A7.749,7.749,0,0,1,165.561,230.224Z" fill="#ea9822"/>
      </g>
      <g id="Group_18" data-name="Group 18">
        <path id="Path_5" data-name="Path 5" d="M328.536,240.672v10.247a15.309,15.309,0,0,1-15.521,15.521H18.109A15.307,15.307,0,0,1,2.588,250.919V240.672a15.564,15.564,0,0,0,15.521,15.521H313.014A15.564,15.564,0,0,0,328.536,240.672Z" fill="#ccd1d9"/>
        <path id="Path_6" data-name="Path 6" d="M199.14,266.44,209.487,313H121.635l10.348-46.564Z" fill="#ccd1d9"/>
      </g>
      <g id="Group_19" data-name="Group 19" opacity="0.5">
        <path id="Path_7" data-name="Path 7" d="M129.683,276.788,121.635,313h10.348l8.049-36.217Z" fill="#fff"/>
      </g>
      <g id="Group_20" data-name="Group 20" opacity="0.1">
        <path id="Path_8" data-name="Path 8" d="M201.434,276.788,209.487,313H199.14l-8.053-36.217Z"/>
      </g>
      <g id="Group_21" data-name="Group 21" opacity="0.5">
        <path id="Path_9" data-name="Path 9" d="M19.048,256.194h-.94A15.564,15.564,0,0,1,2.587,240.672v10.247A15.307,15.307,0,0,0,18.108,266.44H33.63A15.234,15.234,0,0,1,19.048,256.194Z" fill="#fff"/>
      </g>
      <g id="Group_22" data-name="Group 22" opacity="0.1">
        <path id="Path_10" data-name="Path 10" d="M312.074,256.194h.94a15.564,15.564,0,0,0,15.521-15.521v10.247a15.309,15.309,0,0,1-15.521,15.521H297.493A15.232,15.232,0,0,0,312.074,256.194Z"/>
      </g>
      <g id="Group_23" data-name="Group 23">
        <path id="Path_11" data-name="Path 11" d="M328.536,219.876v20.8a15.564,15.564,0,0,1-15.521,15.521H165.561V245.745a7.761,7.761,0,0,0,0-15.521V219.876H328.536Z" fill="#f5f7fa"/>
        <path id="Path_12" data-name="Path 12" d="M165.561,245.745v10.448H18.108A15.564,15.564,0,0,1,2.587,240.672v-20.8H165.561v10.348a7.761,7.761,0,1,0,0,15.521Z" fill="#f5f7fa"/>
      </g>
      <path id="Path_13" data-name="Path 13" d="M18.108,240.672v-20.8H2.587v20.8a15.564,15.564,0,0,0,15.521,15.521H33.63A15.564,15.564,0,0,1,18.108,240.672Z" fill="#fff"/>
      <path id="Path_14" data-name="Path 14" d="M328.536,33.723V219.876H2.587V33.723A15.566,15.566,0,0,1,18.108,18.2H313.014A15.566,15.566,0,0,1,328.536,33.723ZM313.014,204.355V33.619H18.108V204.355Z" fill="#656d78"/>
      <g id="Group_24" data-name="Group 24" opacity="0.2">
        <path id="Path_15" data-name="Path 15" d="M18.108,43.967V33.619h.01A15.559,15.559,0,0,1,33.63,18.2H18.108A15.566,15.566,0,0,0,2.587,33.723V219.876H18.108V43.967Z" fill="#fff"/>
      </g>
      <g id="Group_25" data-name="Group 25" opacity="0.3">
        <path id="Path_16" data-name="Path 16" d="M313.014,43.967V33.619H313A15.565,15.565,0,0,0,297.492,18.2h15.521a15.566,15.566,0,0,1,15.521,15.521V219.876H313.013V43.967Z"/>
      </g>
      <g id="Group_26" data-name="Group 26" opacity="0.1">
        <path id="Path_17" data-name="Path 17" d="M201.44,276.788l-2.3-10.348H131.982l-2.3,10.348Z"/>
      </g>
      <g id="Group_27" data-name="Group 27">
        <path id="Path_18" data-name="Path 18" d="M328.536,222.433H2.587a2.587,2.587,0,1,1,0-5.174H328.535a2.587,2.587,0,1,1,0,5.174Z" fill="#3a3847"/>
        <path id="Path_19" data-name="Path 19" d="M165.561,248.292a10.348,10.348,0,1,1,10.348-10.348A10.358,10.358,0,0,1,165.561,248.292Zm0-15.522a5.174,5.174,0,1,0,5.174,5.174A5.184,5.184,0,0,0,165.561,232.77Z" fill="#3a3847"/>
        <path id="Path_20" data-name="Path 20" d="M121.62,315.561a2.711,2.711,0,0,1-.566-.061,2.591,2.591,0,0,1-1.965-3.087l10.348-46.564a2.625,2.625,0,0,1,3.087-1.965,2.591,2.591,0,0,1,1.966,3.086l-10.348,46.564A2.588,2.588,0,0,1,121.62,315.561Z" fill="#3a3847"/>
        <path id="Path_21" data-name="Path 21" d="M209.508,315.561a2.588,2.588,0,0,1-2.525-2.027l-10.348-46.564a2.588,2.588,0,0,1,5.052-1.121l10.348,46.564a2.591,2.591,0,0,1-1.966,3.087A2.663,2.663,0,0,1,209.508,315.561Z" fill="#3a3847"/>
        <path id="Path_22" data-name="Path 22" d="M217.3,315.561H113.824a2.587,2.587,0,0,1,0-5.174H217.3a2.587,2.587,0,0,1,0,5.174Z" fill="#3a3847"/>
        <path id="Path_23" data-name="Path 23" d="M313.014,206.992H18.108a2.586,2.586,0,0,1-2.587-2.587V33.67a2.586,2.586,0,0,1,2.587-2.587H313.014A2.586,2.586,0,0,1,315.6,33.67V204.406A2.586,2.586,0,0,1,313.014,206.992ZM20.7,201.819H310.428V36.257H20.7Z" fill="#3a3847"/>
        <path id="Path_24" data-name="Path 24" d="M313.014,258.73H18.108A18.13,18.13,0,0,1,0,240.622V33.67A18.13,18.13,0,0,1,18.108,15.561H313.014A18.131,18.131,0,0,1,331.123,33.67V240.622A18.13,18.13,0,0,1,313.014,258.73ZM18.108,20.735A12.951,12.951,0,0,0,5.174,33.67V240.622a12.95,12.95,0,0,0,12.934,12.934H313.014a12.947,12.947,0,0,0,12.935-12.934V33.67a12.949,12.949,0,0,0-12.935-12.934Z" fill="#3a3847"/>
        <path id="Path_25" data-name="Path 25" d="M313.014,269H18.108A17.917,17.917,0,0,1,0,250.889V240.541a2.587,2.587,0,0,1,5.174,0v10.348a12.8,12.8,0,0,0,12.934,12.934H313.014a12.794,12.794,0,0,0,12.935-12.934V240.622a2.587,2.587,0,0,1,5.174,0v10.267A17.914,17.914,0,0,1,313.014,269Z" fill="#3a3847"/>
        <path id="Path_26" data-name="Path 26" d="M28.456,206.992a2.586,2.586,0,0,1-2.587-2.587V33.67a2.587,2.587,0,1,1,5.174,0V204.406A2.585,2.585,0,0,1,28.456,206.992Z" fill="#3a3847"/>
        <path id="Path_27" data-name="Path 27" d="M23.282,51.778H18.108a2.587,2.587,0,1,1,0-5.174h5.174a2.587,2.587,0,0,1,0,5.174Z" fill="#3a3847"/>
        <path id="Path_28" data-name="Path 28" d="M23.282,67.3H18.108a2.587,2.587,0,0,1,0-5.174h5.174a2.587,2.587,0,0,1,0,5.174Z" fill="#3a3847"/>
        <path id="Path_29" data-name="Path 29" d="M23.282,82.821H18.108a2.587,2.587,0,1,1,0-5.174h5.174a2.587,2.587,0,1,1,0,5.174Z" fill="#3a3847"/>
        <path id="Path_30" data-name="Path 30" d="M23.282,98.342H18.108a2.587,2.587,0,1,1,0-5.174h5.174a2.587,2.587,0,1,1,0,5.174Z" fill="#3a3847"/>
        <path id="Path_31" data-name="Path 31" d="M23.282,113.864H18.108a2.587,2.587,0,1,1,0-5.174h5.174a2.587,2.587,0,1,1,0,5.174Z" fill="#3a3847"/>
        <path id="Path_32" data-name="Path 32" d="M23.282,129.385H18.108a2.587,2.587,0,1,1,0-5.174h5.174a2.587,2.587,0,1,1,0,5.174Z" fill="#3a3847"/>
        <path id="Path_33" data-name="Path 33" d="M23.282,144.906H18.108a2.587,2.587,0,1,1,0-5.174h5.174a2.587,2.587,0,1,1,0,5.174Z" fill="#3a3847"/>
        <path id="Path_34" data-name="Path 34" d="M23.282,160.428H18.108a2.587,2.587,0,1,1,0-5.174h5.174a2.587,2.587,0,1,1,0,5.174Z" fill="#3a3847"/>
        <path id="Path_35" data-name="Path 35" d="M23.282,175.95H18.108a2.587,2.587,0,1,1,0-5.174h5.174a2.587,2.587,0,1,1,0,5.174Z" fill="#3a3847"/>
        <path id="Path_36" data-name="Path 36" d="M23.282,191.471H18.108a2.587,2.587,0,1,1,0-5.174h5.174a2.587,2.587,0,1,1,0,5.174Z" fill="#3a3847"/>
        <path id="Path_37" data-name="Path 37" d="M64.673,51.778h-20.7a2.587,2.587,0,0,1,0-5.174h20.7a2.587,2.587,0,0,1,0,5.174Z" fill="#ea9822"/>
        <path id="Path_38" data-name="Path 38" d="M157.8,67.3H85.368a2.587,2.587,0,0,1,0-5.174H157.8a2.587,2.587,0,0,1,0,5.174Z" fill="#37bba4"/>
        <path id="Path_39" data-name="Path 39" d="M75.02,67.3H49.152a2.587,2.587,0,0,1,0-5.174H75.02a2.587,2.587,0,1,1,0,5.174Z" fill="#37bba4"/>
        <path id="Path_40" data-name="Path 40" d="M219.886,82.821H152.627a2.587,2.587,0,0,1,0-5.174h67.259a2.587,2.587,0,1,1,0,5.174Z" fill="#37bba4"/>
        <path id="Path_41" data-name="Path 41" d="M250.929,82.821h-20.7a2.587,2.587,0,0,1,0-5.174h20.7a2.587,2.587,0,1,1,0,5.174Z" fill="#ea9822"/>
        <path id="Path_42" data-name="Path 42" d="M142.279,82.821H54.325a2.587,2.587,0,1,1,0-5.174h87.955a2.587,2.587,0,0,1,0,5.174Z" fill="#37bba4"/>
        <path id="Path_43" data-name="Path 43" d="M69.847,113.864H54.325a2.587,2.587,0,1,1,0-5.174H69.846a2.587,2.587,0,0,1,0,5.174Z" fill="#ea9822"/>
        <path id="Path_44" data-name="Path 44" d="M156.992,113.864h-76.8a2.587,2.587,0,1,1,0-5.174h76.8a2.587,2.587,0,1,1,0,5.174Z" fill="#37bba4"/>
        <path id="Path_45" data-name="Path 45" d="M178.5,98.342H59.5a2.587,2.587,0,1,1,0-5.174h119a2.587,2.587,0,1,1,0,5.174Z" fill="#ea9822"/>
        <path id="Path_46" data-name="Path 46" d="M173.321,129.385H126.758a2.587,2.587,0,1,1,0-5.174h46.563a2.587,2.587,0,1,1,0,5.174Z" fill="#37bba4"/>
        <path id="Path_47" data-name="Path 47" d="M137.106,144.906H49.151a2.587,2.587,0,1,1,0-5.174h87.955a2.587,2.587,0,1,1,0,5.174Z" fill="#37bba4"/>
        <path id="Path_48" data-name="Path 48" d="M90.542,175.95H49.151a2.587,2.587,0,1,1,0-5.174h41.39a2.587,2.587,0,0,1,0,5.174Z" fill="#37bba4"/>
        <path id="Path_49" data-name="Path 49" d="M194.017,160.428H121.584a2.587,2.587,0,1,1,0-5.174h72.432a2.587,2.587,0,1,1,0,5.174Z" fill="#37bba4"/>
        <path id="Path_50" data-name="Path 50" d="M209.538,160.428h-5.174a2.587,2.587,0,0,1,0-5.174h5.174a2.587,2.587,0,1,1,0,5.174Z" fill="#ea9822"/>
        <path id="Path_51" data-name="Path 51" d="M111.237,160.428H54.325a2.587,2.587,0,1,1,0-5.174h56.912a2.587,2.587,0,1,1,0,5.174Z" fill="#37bba4"/>
        <path id="Path_52" data-name="Path 52" d="M64.673,191.471h-20.7a2.587,2.587,0,1,1,0-5.174h20.7a2.587,2.587,0,0,1,0,5.174Z" fill="#ea9822"/>
        <path id="Path_53" data-name="Path 53" d="M178.5,144.906H147.453a2.587,2.587,0,0,1,0-5.174H178.5a2.587,2.587,0,1,1,0,5.174Z" fill="#ea9822"/>
        <path id="Path_54" data-name="Path 54" d="M219.886,129.385H183.67a2.587,2.587,0,0,1,0-5.174h36.216a2.587,2.587,0,1,1,0,5.174Z" fill="#ea9822"/>
        <path id="Path_55" data-name="Path 55" d="M116.411,129.385H54.325a2.587,2.587,0,1,1,0-5.174h62.086a2.587,2.587,0,1,1,0,5.174Z" fill="#37bba4"/>
      </g>
      <g id="Group_28" data-name="Group 28" opacity="0.3">
        <rect id="Rectangle_4" data-name="Rectangle 4" width="10.348" height="170.305" transform="translate(28.454 33.668)" fill="#fff"/>
      </g>
      <g id="Group_29" data-name="Group 29" opacity="0.2">
        <rect id="Rectangle_5" data-name="Rectangle 5" width="10.348" height="170.305" transform="translate(302.668 33.668)"/>
      </g>
    </g>
  </g>
</svg>
