<svg xmlns="http://www.w3.org/2000/svg" width="100" height="50" viewBox="0 0 100 50">
  <g id="logo" transform="translate(0 -42.894)">
    <path id="Path_1" data-name="Path 1" d="M292.165,127.274a2.064,2.064,0,0,1-1.466-.634,2.465,2.465,0,0,1-.085-3.279l12.369-14.244L290.614,94.874A2.465,2.465,0,0,1,290.7,91.6a2.018,2.018,0,0,1,3.017.093l13.764,15.837a2.454,2.454,0,0,1,0,3.186l-13.764,15.837A2.092,2.092,0,0,1,292.165,127.274Z" transform="translate(-208.068 -41.226)" fill="#37bba4"/>
    <path id="Path_2" data-name="Path 2" d="M15.9,127.274a2.047,2.047,0,0,1-1.551-.727L.587,110.71a2.454,2.454,0,0,1,0-3.186L14.351,91.688a2.018,2.018,0,0,1,3.017-.093,2.465,2.465,0,0,1,.085,3.279L5.071,109.118,17.44,123.361a2.465,2.465,0,0,1-.085,3.279A2.057,2.057,0,0,1,15.9,127.274Z" transform="translate(0 -41.226)" fill="#37bba4"/>
    <path id="Path_3" data-name="Path 3" d="M172.407,92.894a2.4,2.4,0,0,1-.327-.03,2.264,2.264,0,0,1-1.793-2.583l6.547-45.458a2.169,2.169,0,0,1,2.434-1.9,2.264,2.264,0,0,1,1.793,2.583L174.514,90.96A2.171,2.171,0,0,1,172.407,92.894Z" transform="translate(-125.7 0)" fill="#37bba4"/>
  </g>
</svg>
