<svg xmlns="http://www.w3.org/2000/svg" width="61" height="61" viewBox="0 0 61 61">
  <g id="construcao" transform="translate(0.5 0.5)">
    <path id="Path_57" data-name="Path 57" d="M60,30A30.022,30.022,0,0,1,49.468,52.826q-.889.758-1.837,1.45a30.014,30.014,0,0,1-35.264,0,30.177,30.177,0,0,1-2.57-2.1q-.959-.872-1.837-1.824A30,30,0,1,1,60,30Z" transform="translate(0)" fill="#ea9822" stroke="#000" stroke-width="1"/>
    <g id="Group_30" data-name="Group 30" transform="translate(8.029 25.061)">
      <path id="Path_58" data-name="Path 58" d="M72.375,216.388v29.164a30.432,30.432,0,0,1-2.592-2.116q-.967-.88-1.852-1.84V216.388Z" transform="translate(-67.93 -216.388)" fill="#ccc" stroke="#000" stroke-width="1"/>
      <path id="Path_59" data-name="Path 59" d="M410.9,216.388V241.6a30.159,30.159,0,0,1-2.593,2.495q-.9.765-1.852,1.462V216.388Z" transform="translate(-366.958 -216.388)" fill="#ccc" stroke="#000" stroke-width="1"/>
    </g>
    <g id="Group_31" data-name="Group 31" transform="translate(1.257 11.723)">
      <path id="Path_60" data-name="Path 60" d="M86.2,275.947v22.125a30.43,30.43,0,0,1-2.592-2.116V275.947Z" transform="translate(-74.979 -255.57)" fill="#e0e2e2" stroke="#000" stroke-width="1"/>
      <path id="Path_61" data-name="Path 61" d="M424.721,275.947v18.169a30.16,30.16,0,0,1-2.594,2.495V275.947Z" transform="translate(-374.007 -255.57)" fill="#e0e2e2" stroke="#000" stroke-width="1"/>
      <rect id="Rectangle_7" data-name="Rectangle 7" width="57.484" height="17.395" fill="#e0e2e2" stroke="#000" stroke-width="1"/>
    </g>
    <g id="Group_32" data-name="Group 32" transform="translate(1.257 12.092)">
      <path id="Path_62" data-name="Path 62" d="M23.819,120.938H17.228l-6.59-17.4h6.59Z" transform="translate(-10.638 -103.543)" fill="#37bba4" stroke="#000" stroke-width="1"/>
      <path id="Path_63" data-name="Path 63" d="M403.014,120.938h-6.591l-6.59-17.4h6.59Z" transform="translate(-345.529 -103.543)" fill="#37bba4" stroke="#000" stroke-width="1"/>
      <path id="Path_64" data-name="Path 64" d="M276.615,120.938h-6.591l-6.591-17.4h6.591Z" transform="translate(-233.898 -103.543)" fill="#37bba4" stroke="#000" stroke-width="1"/>
      <path id="Path_65" data-name="Path 65" d="M150.217,120.938h-6.591l-6.591-17.4h6.591Z" transform="translate(-122.268 -103.543)" fill="#37bba4" stroke="#000" stroke-width="1"/>
    </g>
  </g>
</svg>
