<svg xmlns="http://www.w3.org/2000/svg" width="41.67" height="40.41" viewBox="0 0 41.67 40.41">
  <g id="facebook-verde" transform="translate(0.5 0.5)">
    <path id="Caminho_70" data-name="Caminho 70" d="M35.586,0H5.084A5.012,5.012,0,0,0,0,4.926V34.484A5.012,5.012,0,0,0,5.084,39.41h30.5a5.012,5.012,0,0,0,5.084-4.926V4.926A5.012,5.012,0,0,0,35.586,0Z" fill="#37bba4" stroke="#000" stroke-width="1"/>
    <path id="Caminho_71" data-name="Caminho 71" d="M211.435,108.957h-6.478v-5.183c0-1.43,1.161-1.3,2.591-1.3h2.591V96h-5.183a7.774,7.774,0,0,0-7.774,7.774v5.183H192v6.478h5.183v14.252h7.774V115.435h5.183Z" transform="translate(-177.01 -90.277)" fill="#fff" stroke="#000" stroke-width="1"/>
  </g>
</svg>
