<svg xmlns="http://www.w3.org/2000/svg" width="41" height="41.002" viewBox="0 0 41 41.002">
  <g id="github-verde" transform="translate(-19.5 -13.5)">
    <path id="Caminho_56" data-name="Caminho 56" d="M20,.5A20.256,20.256,0,0,0,0,21.008,20.466,20.466,0,0,0,13.675,40.465c1,.193,1.367-.442,1.367-.986,0-.487-.017-1.777-.025-3.487C9.453,37.228,8.28,33.24,8.28,33.24a5.4,5.4,0,0,0-2.225-3C4.243,28.969,6.195,29,6.195,29a4.2,4.2,0,0,1,3.063,2.113c1.783,3.136,4.682,2.23,5.825,1.706a4.413,4.413,0,0,1,1.267-2.743c-4.442-.513-9.11-2.276-9.11-10.134a8.023,8.023,0,0,1,2.058-5.5,7.464,7.464,0,0,1,.175-5.428s1.675-.55,5.5,2.1a18.405,18.405,0,0,1,10,0c3.8-2.652,5.475-2.1,5.475-2.1a7.671,7.671,0,0,1,.2,5.428,8.056,8.056,0,0,1,2.05,5.5c0,7.878-4.675,9.612-9.125,10.116a4.978,4.978,0,0,1,1.35,3.795c0,2.744-.025,4.949-.025,5.616,0,.537.35,1.179,1.375.974A20.4,20.4,0,0,0,40,21.008,20.26,20.26,0,0,0,20,.5Z" transform="translate(20 13.5)" fill="#37bba4" stroke="#000" stroke-width="1"/>
  </g>
</svg>
