<svg xmlns="http://www.w3.org/2000/svg" width="61" height="61.002" viewBox="0 0 61 61.002">
  <path id="Caminho_56" data-name="Caminho 56" d="M30,.5C13.425.5,0,14.274,0,31.261A30.7,30.7,0,0,0,20.512,60.447c1.5.29,2.05-.663,2.05-1.479,0-.73-.025-2.666-.038-5.23-8.345,1.855-10.1-4.127-10.1-4.127-1.365-3.55-3.338-4.5-3.338-4.5-2.717-1.907.21-1.868.21-1.868,3.012.214,4.595,3.17,4.595,3.17,2.675,4.7,7.023,3.344,8.738,2.559a6.619,6.619,0,0,1,1.9-4.114c-6.663-.77-13.665-3.415-13.665-15.2A12.034,12.034,0,0,1,13.947,21.4a11.2,11.2,0,0,1,.262-8.142s2.513-.824,8.25,3.154a27.608,27.608,0,0,1,15,0c5.7-3.978,8.212-3.154,8.212-3.154a11.506,11.506,0,0,1,.3,8.142,12.084,12.084,0,0,1,3.075,8.254c0,11.817-7.013,14.418-13.688,15.175,1.05.923,2.025,2.81,2.025,5.692,0,4.116-.037,7.424-.037,8.423,0,.806.525,1.769,2.062,1.461A30.6,30.6,0,0,0,60,31.261C60,14.274,46.567.5,30,.5Z" transform="translate(0.5)" fill="#ea9822" stroke="#000" stroke-width="1"/>
</svg>
