<svg xmlns="http://www.w3.org/2000/svg" width="61" height="61" viewBox="0 0 61 61">
  <g id="facebook-verde" transform="translate(0.5 0.5)">
    <path id="Caminho_70" data-name="Caminho 70" d="M52.5,0H7.5A7.508,7.508,0,0,0,0,7.5v45A7.508,7.508,0,0,0,7.5,60h45A7.508,7.508,0,0,0,60,52.5V7.5A7.508,7.508,0,0,0,52.5,0Z" fill="#37bba4" stroke="#000" stroke-width="1"/>
    <path id="Caminho_71" data-name="Caminho 71" d="M220.672,115.115h-9.557v-7.646c0-2.11,1.713-1.911,3.823-1.911h3.823V96h-7.646a11.468,11.468,0,0,0-11.469,11.469v7.646H192v9.557h7.646V145.7h11.469V124.672h5.734Z" transform="translate(-169.886 -85.698)" fill="#fafafa" stroke="#000" stroke-width="1"/>
  </g>
</svg>
