<svg xmlns="http://www.w3.org/2000/svg" width="61" height="61" viewBox="0 0 61 61">
  <g id="linkedin-verde" transform="translate(-1089.5 -2772.923)">
    <path id="linkedin-verde-2" data-name="linkedin-verde" d="M54.573,0H5.427A5.428,5.428,0,0,0,0,5.427V54.572A5.428,5.428,0,0,0,5.427,60H54.572A5.428,5.428,0,0,0,60,54.572V5.427A5.428,5.428,0,0,0,54.573,0ZM18.567,51.808a1.579,1.579,0,0,1-1.579,1.579H10.264a1.579,1.579,0,0,1-1.579-1.579V23.624a1.579,1.579,0,0,1,1.579-1.579h6.723a1.579,1.579,0,0,1,1.579,1.579ZM13.625,19.387A6.387,6.387,0,1,1,20.013,13,6.387,6.387,0,0,1,13.625,19.387ZM53.7,51.935a1.452,1.452,0,0,1-1.452,1.452H45.036a1.452,1.452,0,0,1-1.452-1.452V38.715c0-1.972.578-8.642-5.154-8.642-4.446,0-5.348,4.565-5.529,6.614V51.935a1.452,1.452,0,0,1-1.452,1.452H24.47a1.452,1.452,0,0,1-1.452-1.452V23.5a1.452,1.452,0,0,1,1.452-1.452h6.978A1.452,1.452,0,0,1,32.9,23.5v2.459c1.649-2.474,4.1-4.384,9.316-4.384,11.553,0,11.487,10.793,11.487,16.723V51.935Z" transform="translate(1090 2773.423)" fill="#37bba4" stroke="#000" stroke-width="1"/>
  </g>
</svg>
